<svg width="512" height="512" xmlns="http://www.w3.org/2000/svg">
  <!-- 手搓 SVG 真离谱啊真离谱 -->
  <!-- 作者 moushu 根据官方立绘里面的幽灵形象搓的 -->
  <mask id="hornMaskL">
    <ellipse ry="256" rx="256" cy="184" cx="256" fill="#fff"/>
    <ellipse ry="256" rx="256" cy="174" cx="412" fill="#000000"/>
  </mask>
  <mask id="hornMaskR">
    <ellipse ry="256" rx="256" cy="184" cx="256" fill="#fff"/>
    <ellipse ry="256" rx="256" cy="174" cx="100" fill="#000000"/>
  </mask>
  <g>
    <title>底色</title>
    <!-- 主体部分 -->
    <ellipse ry="162" rx="162" id="svg_main" cy="320" cx="256" fill="#131516"/>
    <!-- 顶上的角 -->
    <ellipse ry="156" rx="126" id="svg_horn_l" cy="200" cx="235" fill="#131516" mask="url(#hornMaskL)"/>
    <ellipse ry="156" rx="126" id="svg_horn_r" cy="200" cx="277" fill="#131516" mask="url(#hornMaskR)"/>
    <!-- <ellipse ry="98" rx="98" cy="184" cx="256" fill="#6cf"/> -->
  </g>
  <mask id="eyeMask">
    <ellipse ry="286" rx="256" cy="184" cx="256" fill="#fff"/>
    <ellipse ry="128" rx="128" cy="174" cx="256" fill="#000000"/>
  </mask>
  <mask id="pupilMask">
    <ellipse ry="124" rx="59" cy="334" cx="256" fill="#000"/>
    <ellipse ry="109" rx="44" cy="334" cx="256" fill="#fff"/>
  </mask>
  <g mask="url(#eyeMask)">
    <title>眼睛</title>
    <!-- 底色 -->
    <ellipse ry="140" rx="140" id="svg_eye_main" cy="320" cx="256" fill="#f1fefe"/>
    <!-- 瞳孔 -->
    <ellipse ry="124" rx="59" cy="334" cx="256" fill="#09090a"/>
    <ellipse ry="109" rx="44" cy="334" cx="256" fill="#b44427"/>
    <!-- 高光 -->
    <ellipse ry="44" rx="54" cy="453" cx="256" fill="#f37859" mask="url(#pupilMask)"/>
    <ellipse ry="12" rx="16" cy="298" cx="302" fill="#fff0e3c9"/>
  </g>
</svg>
